<svg width="24" height="25" viewBox="0 0 24 25" fill="none" xmlns="http://www.w3.org/2000/svg">
<g id="alert-triangle">
<path id="Icon" d="M11.9998 8.49999V12.5M11.9998 16.5H12.0098M10.2898 3.35999L1.81978 17.5C1.64514 17.8024 1.55274 18.1453 1.55177 18.4945C1.55079 18.8437 1.64127 19.1871 1.8142 19.4905C1.98714 19.7939 2.2365 20.0467 2.53748 20.2238C2.83847 20.4009 3.18058 20.4962 3.52978 20.5H20.4698C20.819 20.4962 21.1611 20.4009 21.4621 20.2238C21.7631 20.0467 22.0124 19.7939 22.1854 19.4905C22.3583 19.1871 22.4488 18.8437 22.4478 18.4945C22.4468 18.1453 22.3544 17.8024 22.1798 17.5L13.7098 3.35999C13.5315 3.0661 13.2805 2.82311 12.981 2.65447C12.6814 2.48584 12.3435 2.39725 11.9998 2.39725C11.656 2.39725 11.3181 2.48584 11.0186 2.65447C10.7191 2.82311 10.468 3.0661 10.2898 3.35999Z" stroke="#9F721C" stroke-width="2" stroke-linecap="round" stroke-linejoin="round"/>
</g>
</svg>
