<svg width="16" height="16" viewBox="0 0 16 16" fill="none" xmlns="http://www.w3.org/2000/svg">
<g id="vuesax/linear/calendar-tick">
<g id="calendar-tick">
<path id="Vector" d="M5.3335 1.33331V3.33331" stroke="#6B6C7E" stroke-width="1.2" stroke-miterlimit="10" stroke-linecap="round" stroke-linejoin="round"/>
<path id="Vector_2" d="M10.6665 1.33331V3.33331" stroke="#6B6C7E" stroke-width="1.2" stroke-miterlimit="10" stroke-linecap="round" stroke-linejoin="round"/>
<path id="Vector_3" d="M2.3335 6.06H13.6668" stroke="#6B6C7E" stroke-width="1.2" stroke-miterlimit="10" stroke-linecap="round" stroke-linejoin="round"/>
<g id="Group">
<path id="Vector_4" d="M14.6668 12.6667C14.6668 13.1667 14.5268 13.64 14.2802 14.04C13.8202 14.8133 12.9735 15.3333 12.0002 15.3333C11.3268 15.3333 10.7135 15.0867 10.2468 14.6667C10.0402 14.4933 9.86016 14.28 9.72016 14.04C9.4735 13.64 9.3335 13.1667 9.3335 12.6667C9.3335 11.1933 10.5268 10 12.0002 10C12.8002 10 13.5135 10.3533 14.0002 10.9067C14.4135 11.38 14.6668 11.9933 14.6668 12.6667Z" stroke="#6B6C7E" stroke-width="1.2" stroke-miterlimit="10" stroke-linecap="round" stroke-linejoin="round"/>
<path id="Vector_5" d="M10.96 12.6666L11.62 13.3266L13.04 12.0133" stroke="#6B6C7E" stroke-width="1.2" stroke-linecap="round" stroke-linejoin="round"/>
</g>
<path id="Vector_6" d="M14 5.66665V10.9066C13.5133 10.3533 12.8 9.99998 12 9.99998C10.5267 9.99998 9.33333 11.1933 9.33333 12.6666C9.33333 13.1666 9.47333 13.64 9.72 14.04C9.86 14.28 10.04 14.4933 10.2467 14.6666H5.33333C3 14.6666 2 13.3333 2 11.3333V5.66665C2 3.66665 3 2.33331 5.33333 2.33331H10.6667C13 2.33331 14 3.66665 14 5.66665Z" stroke="#6B6C7E" stroke-width="1.2" stroke-miterlimit="10" stroke-linecap="round" stroke-linejoin="round"/>
<path id="Vector_7" d="M7.99715 9.13332H8.00314" stroke="#6B6C7E" stroke-width="1.2" stroke-linecap="round" stroke-linejoin="round"/>
<path id="Vector_8" d="M5.52938 9.13332H5.53537" stroke="#6B6C7E" stroke-width="1.2" stroke-linecap="round" stroke-linejoin="round"/>
<path id="Vector_9" d="M5.52938 11.1333H5.53537" stroke="#6B6C7E" stroke-width="1.2" stroke-linecap="round" stroke-linejoin="round"/>
</g>
</g>
</svg>
