<svg width="16" height="16" viewBox="0 0 16 16" fill="none" xmlns="http://www.w3.org/2000/svg">
<g id="vuesax/linear/copy">
<g id="copy">
<path id="Vector" d="M10.6668 8.59998V11.4C10.6668 13.7333 9.7335 14.6666 7.40016 14.6666H4.60016C2.26683 14.6666 1.3335 13.7333 1.3335 11.4V8.59998C1.3335 6.26665 2.26683 5.33331 4.60016 5.33331H7.40016C9.7335 5.33331 10.6668 6.26665 10.6668 8.59998Z" stroke="#6B6C7E" stroke-width="1.2" stroke-linecap="round" stroke-linejoin="round"/>
<path id="Vector_2" d="M14.6668 4.59998V7.39998C14.6668 9.73331 13.7335 10.6666 11.4002 10.6666H10.6668V8.59998C10.6668 6.26665 9.7335 5.33331 7.40016 5.33331H5.3335V4.59998C5.3335 2.26665 6.26683 1.33331 8.60016 1.33331H11.4002C13.7335 1.33331 14.6668 2.26665 14.6668 4.59998Z" stroke="#6B6C7E" stroke-width="1.2" stroke-linecap="round" stroke-linejoin="round"/>
</g>
</g>
</svg>
