<svg width="24" height="24" viewBox="0 0 24 24" fill="none" xmlns="http://www.w3.org/2000/svg">
<g id="more_horizontal">
<path id="Icon color" fill-rule="evenodd" clip-rule="evenodd" d="M6 10.0002C7.10457 10.0002 8 10.8956 8 12.0002C8 13.1048 7.10457 14.0002 6 14.0002C4.89543 14.0002 4 13.1048 4 12.0002C4 10.8956 4.89543 10.0002 6 10.0002ZM14 12.0002C14 10.8956 13.1046 10.0002 12 10.0002C10.8954 10.0002 10 10.8956 10 12.0002C10 13.1048 10.8954 14.0002 12 14.0002C13.1046 14.0002 14 13.1048 14 12.0002ZM18 10.0002C19.1046 10.0002 20 10.8956 20 12.0002C20 13.1048 19.1046 14.0002 18 14.0002C16.8954 14.0002 16 13.1048 16 12.0002C16 10.8956 16.8954 10.0002 18 10.0002Z" fill="#6B6C7E"/>
</g>
</svg>
