<svg width="24" height="24" viewBox="0 0 24 24" fill="none" xmlns="http://www.w3.org/2000/svg">
<g id="solar:checklist-minimalistic-bold-duotone">
<path id="Vector" opacity="0.5" d="M2 12C2 7.286 2 4.929 3.464 3.464C4.93 2 7.286 2 12 2C16.714 2 19.071 2 20.535 3.464C22 4.93 22 7.286 22 12C22 16.714 22 19.071 20.535 20.535C19.072 22 16.714 22 12 22C7.286 22 4.929 22 3.464 20.535C2 19.072 2 16.714 2 12Z" fill="#800020" fill-opacity="0.78"/>
<path id="Vector_2" d="M10.5434 7.517C10.6143 7.44628 10.6702 7.3621 10.708 7.26942C10.7458 7.17674 10.7647 7.07743 10.7635 6.97734C10.7623 6.87726 10.7411 6.77842 10.7011 6.68666C10.6611 6.5949 10.6032 6.51207 10.5307 6.44305C10.4582 6.37403 10.3726 6.32022 10.279 6.28478C10.1854 6.24935 10.0857 6.23302 9.98564 6.23674C9.88562 6.24046 9.78735 6.26417 9.69664 6.30646C9.60592 6.34876 9.52458 6.40878 9.45742 6.483L7.14342 8.913L6.54342 8.283C6.47627 8.20878 6.39493 8.14876 6.30421 8.10646C6.21349 8.06417 6.11523 8.04046 6.01521 8.03674C5.91518 8.03302 5.81542 8.04935 5.72181 8.08478C5.6282 8.12022 5.54263 8.17403 5.47014 8.24305C5.39765 8.31207 5.33971 8.3949 5.29973 8.48666C5.25975 8.57842 5.23854 8.67726 5.23736 8.77734C5.23617 8.87743 5.25503 8.97674 5.29283 9.06942C5.33062 9.1621 5.38659 9.24629 5.45742 9.317L6.60042 10.517C6.67047 10.5905 6.75472 10.649 6.84805 10.689C6.94139 10.729 7.04188 10.7497 7.14342 10.7497C7.24497 10.7497 7.34546 10.729 7.4388 10.689C7.53213 10.649 7.61638 10.5905 7.68642 10.517L10.5434 7.517ZM13.0004 8.25C12.8015 8.25 12.6107 8.32902 12.4701 8.46967C12.3294 8.61032 12.2504 8.80109 12.2504 9C12.2504 9.19891 12.3294 9.38968 12.4701 9.53033C12.6107 9.67098 12.8015 9.75 13.0004 9.75H18.0004C18.1993 9.75 18.3901 9.67098 18.5308 9.53033C18.6714 9.38968 18.7504 9.19891 18.7504 9C18.7504 8.80109 18.6714 8.61032 18.5308 8.46967C18.3901 8.32902 18.1993 8.25 18.0004 8.25H13.0004ZM10.5434 14.517C10.6143 14.4463 10.6702 14.3621 10.708 14.2694C10.7458 14.1767 10.7647 14.0774 10.7635 13.9773C10.7623 13.8773 10.7411 13.7784 10.7011 13.6867C10.6611 13.5949 10.6032 13.5121 10.5307 13.443C10.4582 13.374 10.3726 13.3202 10.279 13.2848C10.1854 13.2494 10.0857 13.233 9.98564 13.2367C9.88562 13.2405 9.78735 13.2642 9.69664 13.3065C9.60592 13.3488 9.52458 13.4088 9.45742 13.483L7.14342 15.913L6.54342 15.283C6.47627 15.2088 6.39493 15.1488 6.30421 15.1065C6.21349 15.0642 6.11523 15.0405 6.01521 15.0367C5.91518 15.033 5.81542 15.0494 5.72181 15.0848C5.6282 15.1202 5.54263 15.174 5.47014 15.243C5.39765 15.3121 5.33971 15.3949 5.29973 15.4867C5.25975 15.5784 5.23854 15.6773 5.23736 15.7773C5.23617 15.8774 5.25503 15.9767 5.29283 16.0694C5.33062 16.1621 5.38659 16.2463 5.45742 16.317L6.60042 17.517C6.67047 17.5905 6.75472 17.649 6.84805 17.689C6.94139 17.729 7.04188 17.7497 7.14342 17.7497C7.24497 17.7497 7.34546 17.729 7.4388 17.689C7.53213 17.649 7.61638 17.5905 7.68642 17.517L10.5434 14.517ZM13.0004 15.25C12.8015 15.25 12.6107 15.329 12.4701 15.4697C12.3294 15.6103 12.2504 15.8011 12.2504 16C12.2504 16.1989 12.3294 16.3897 12.4701 16.5303C12.6107 16.671 12.8015 16.75 13.0004 16.75H18.0004C18.1993 16.75 18.3901 16.671 18.5308 16.5303C18.6714 16.3897 18.7504 16.1989 18.7504 16C18.7504 15.8011 18.6714 15.6103 18.5308 15.4697C18.3901 15.329 18.1993 15.25 18.0004 15.25H13.0004Z" fill="white"/>
</g>
</svg>
