<svg width="28" height="22" viewBox="0 0 28 22" fill="none" xmlns="http://www.w3.org/2000/svg">
<g id="twemoji:flag-nigeria" clip-path="url(#clip0_93_19774)">
<path id="Vector" d="M3.11111 0.888672C2.28599 0.888672 1.49467 1.21645 0.911223 1.79989C0.327777 2.38334 0 3.17466 0 3.99978L0 17.9998C0 18.8249 0.327777 19.6162 0.911223 20.1997C1.49467 20.7831 2.28599 21.1109 3.11111 21.1109H9.33333V0.888672H3.11111Z" fill="#009A49"/>
<path id="Vector_2" d="M9.33301 0.888672H18.6663V21.1109H9.33301V0.888672Z" fill="#EEEEEE"/>
<path id="Vector_3" d="M24.8892 0.888672H18.667V21.1109H24.8892C25.7143 21.1109 26.5057 20.7831 27.0891 20.1997C27.6725 19.6162 28.0003 18.8249 28.0003 17.9998V3.99978C28.0003 3.17466 27.6725 2.38334 27.0891 1.79989C26.5057 1.21645 25.7143 0.888672 24.8892 0.888672Z" fill="#009A49"/>
</g>
<defs>
<clipPath id="clip0_93_19774">
<rect width="28" height="20.2222" fill="white" transform="translate(0 0.888672)"/>
</clipPath>
</defs>
</svg>
