<svg width="20" height="20" viewBox="0 0 20 20" fill="none" xmlns="http://www.w3.org/2000/svg">
<g id="vuesax/linear/wallet-2">
<path id="Vector" d="M10.833 7.5H5.83301" stroke="white" stroke-opacity="0.67" stroke-width="1.5" stroke-linecap="round" stroke-linejoin="round"/>
<path id="Vector_2" d="M18.3338 9.14164V10.8584C18.3338 11.3167 17.9672 11.6917 17.5005 11.7083H15.8672C14.9672 11.7083 14.1422 11.05 14.0672 10.15C14.0172 9.62499 14.2172 9.13332 14.5672 8.79166C14.8755 8.47499 15.3005 8.29168 15.7672 8.29168H17.5005C17.9672 8.30834 18.3338 8.68331 18.3338 9.14164Z" stroke="white" stroke-opacity="0.67" stroke-width="1.5" stroke-linecap="round" stroke-linejoin="round"/>
<path id="Vector_3" d="M14.567 8.79166C14.217 9.13332 14.017 9.625 14.067 10.15C14.142 11.05 14.967 11.7083 15.867 11.7083H17.5003V12.9167C17.5003 15.4167 15.8337 17.0833 13.3337 17.0833H5.83366C3.33366 17.0833 1.66699 15.4167 1.66699 12.9167V7.08333C1.66699 4.81667 3.03366 3.23333 5.15866 2.96667C5.37533 2.93333 5.60033 2.91667 5.83366 2.91667H13.3337C13.5503 2.91667 13.7587 2.92499 13.9587 2.95832C16.1087 3.20832 17.5003 4.8 17.5003 7.08333V8.29168H15.767C15.3003 8.29168 14.8753 8.47499 14.567 8.79166Z" stroke="white" stroke-opacity="0.67" stroke-width="1.5" stroke-linecap="round" stroke-linejoin="round"/>
</g>
</svg>
